<?xml version="1.0" standalone="no"?>
<!DOCTYPE svg PUBLIC "-//W3C//DTD SVG 20010904//EN"
 "http://www.w3.org/TR/2001/REC-SVG-20010904/DTD/svg10.dtd">
<svg version="1.0" xmlns="http://www.w3.org/2000/svg"
 width="5000.000000pt" height="5000.000000pt" viewBox="0 0 5000.000000 5000.000000"
 preserveAspectRatio="xMidYMid meet">

<g transform="translate(0.000000,5000.000000) scale(0.100000,-0.100000)"
fill="#000000" stroke="none">
<path d="M24480 32510 l-105 -520 -35 -9 c-19 -5 -89 -21 -155 -36 -66 -15
-175 -45 -241 -66 -67 -22 -126 -39 -131 -39 -6 0 -167 178 -358 396 -226 258
-352 394 -361 390 -11 -4 -863 -494 -872 -501 -2 -2 73 -229 166 -506 l170
-503 -72 -65 c-92 -84 -206 -199 -283 -284 l-61 -67 -502 170 c-277 93 -504
169 -506 167 -16 -17 -503 -874 -501 -882 3 -8 618 -557 751 -669 l38 -33 -35
-109 c-19 -60 -37 -118 -39 -129 -3 -20 -13 -20 -623 -25 l-620 -5 -882 -510
c-485 -280 -882 -512 -883 -515 0 -4 1489 -865 1703 -985 l72 -40 613 -5 614
-5 34 -110 c18 -60 36 -119 39 -130 3 -16 -72 -87 -390 -364 -217 -190 -395
-349 -395 -353 0 -9 487 -857 501 -872 4 -5 221 63 506 159 l499 167 210 -210
211 -210 -169 -498 c-92 -274 -164 -502 -160 -506 5 -5 204 -121 443 -258 408
-235 435 -249 450 -232 9 9 166 187 349 395 275 313 336 378 354 374 11 -2 84
-23 161 -46 77 -23 196 -54 265 -69 l125 -28 105 -519 105 -520 508 -3 c474
-2 508 -1 514 15 4 10 52 245 108 523 l101 504 39 9 c123 26 372 90 445 115
l85 29 350 -398 c316 -359 352 -396 370 -387 67 35 842 483 853 493 10 9 -20
109 -156 509 l-168 498 210 210 211 211 498 -168 c291 -98 502 -164 507 -159
21 22 501 865 498 875 -2 5 -179 164 -393 353 -215 188 -389 349 -389 357 1 7
18 66 37 129 l35 115 969 5 c1043 6 996 4 1163 60 175 58 369 203 484 360 63
86 130 219 163 327 25 83 27 100 27 278 0 220 -12 281 -88 440 -57 120 -114
204 -197 286 -158 158 -335 253 -552 294 -67 13 -223 15 -1023 15 -519 0 -944
2 -944 4 0 2 -18 62 -40 132 -21 71 -36 132 -32 135 281 245 787 694 785 698
-2 8 -501 872 -505 877 -2 2 -230 -73 -506 -166 l-502 -169 -47 52 c-101 110
-215 225 -291 292 l-80 70 171 503 c93 276 168 504 166 506 -10 8 -856 496
-870 501 -12 4 -107 -98 -363 -390 -191 -217 -352 -395 -358 -395 -5 0 -50 13
-99 30 -70 23 -334 92 -444 115 -18 4 -30 56 -124 525 l-104 520 -511 0 -511
0 -105 -520z m913 -361 l99 -496 162 -26 c245 -41 503 -111 734 -201 52 -20
98 -36 103 -36 4 0 157 169 339 375 182 206 335 375 341 375 21 0 340 -194
336 -204 -16 -41 -317 -939 -317 -945 0 -4 60 -57 133 -117 166 -136 339 -310
485 -486 l114 -136 470 159 c258 87 475 159 481 159 10 0 190 -297 199 -327 2
-6 -161 -156 -362 -333 -201 -177 -371 -328 -379 -335 -11 -11 -8 -26 19 -96
29 -74 100 -278 100 -286 0 -2 -337 -3 -750 -3 l-749 0 -41 71 c-98 166 -291
391 -451 525 -301 251 -694 425 -1077 478 -144 20 -432 21 -570 1 -370 -53
-723 -202 -1027 -433 -169 -129 -406 -396 -510 -574 l-39 -68 -748 0 c-411 0
-748 1 -748 3 0 8 61 182 95 270 37 96 38 99 19 117 -10 10 -180 160 -377 333
-197 174 -359 318 -360 321 -4 11 189 336 199 336 6 0 224 -71 483 -159 l472
-158 111 135 c134 162 316 346 457 462 57 47 118 97 135 112 l31 26 -162 480
-162 480 167 97 c91 53 169 97 172 98 4 1 156 -168 339 -375 182 -208 336
-378 341 -378 4 0 50 16 102 36 247 96 558 178 814 214 l81 12 97 481 c54 265
100 490 102 500 5 16 21 17 202 15 l196 -3 99 -496z m27 -2277 c335 -69 631
-223 875 -454 77 -72 195 -207 195 -222 0 -3 -630 -6 -1401 -6 l-1400 0 47 60
c65 83 225 236 321 307 241 179 542 297 853 337 89 11 417 -3 510 -22z m4180
-1292 l0 -230 -4253 0 -4252 0 -230 230 -230 230 4483 0 4482 0 0 -230z m840
-420 l0 -650 -225 0 -225 0 0 650 0 650 225 0 225 0 0 -650z m548 544 c118
-78 221 -212 263 -344 30 -91 36 -252 15 -345 -33 -137 -110 -260 -224 -356
-56 -47 -76 -59 -159 -96 l-53 -23 0 620 0 620 53 -21 c28 -11 76 -36 105 -55z
m-10543 -244 l300 -300 -301 -301 -300 -300 -335 192 c-183 106 -342 199 -351
207 -16 13 -18 37 -18 207 l0 193 348 201 c191 110 349 201 352 201 3 0 140
-135 305 -300z m9155 -720 l0 -230 -4482 0 -4483 0 230 230 230 230 4252 0
4253 0 0 -230z m-6321 -679 c150 -252 402 -512 661 -680 265 -172 612 -297
922 -330 122 -14 345 -14 463 -1 643 72 1244 451 1576 995 l52 85 749 0 c411
0 748 -1 748 -3 0 -8 -71 -212 -100 -285 -18 -46 -28 -87 -24 -91 5 -5 176
-155 381 -335 l372 -326 -96 -168 c-53 -92 -97 -169 -99 -171 -2 -2 -219 69
-484 157 l-480 160 -97 -116 c-149 -182 -474 -497 -613 -595 l-25 -18 159
-472 c87 -260 161 -477 163 -482 2 -6 -74 -55 -168 -109 l-172 -98 -22 24
c-12 12 -154 174 -315 358 -161 184 -302 345 -314 358 l-22 22 -95 -38 c-241
-99 -528 -175 -835 -222 l-71 -11 -99 -495 -99 -494 -199 2 -200 3 -98 489
c-54 269 -99 491 -102 493 -2 2 -59 12 -127 23 -272 42 -543 116 -778 212 -91
36 -96 37 -112 21 -9 -10 -150 -171 -314 -358 -164 -187 -308 -351 -320 -364
l-23 -23 -171 98 c-126 73 -169 103 -165 114 24 63 314 936 313 944 0 6 -46
47 -102 91 -133 105 -420 391 -532 530 -49 61 -89 111 -90 112 -1 2 -217 -69
-480 -157 -378 -126 -482 -157 -491 -147 -6 6 -52 83 -102 169 l-90 158 366
321 c202 177 373 328 381 335 12 10 7 30 -29 126 -40 107 -90 248 -90 255 0 2
337 3 749 3 l749 0 41 -69z m3209 60 c-9 -26 -161 -191 -234 -255 -440 -385
-1014 -530 -1565 -395 -352 86 -668 277 -903 546 -47 54 -86 101 -86 106 0 4
628 7 1396 7 857 0 1394 -4 1392 -9z"/>
<path d="M25145 20539 c-212 -14 -369 -82 -505 -219 -126 -126 -187 -260 -227
-496 -17 -100 -18 -182 -18 -1039 0 -838 2 -942 18 -1047 56 -373 178 -589
392 -693 93 -46 169 -64 295 -72 241 -14 448 75 574 247 23 31 46 57 51 59 6
2 35 -59 66 -135 l55 -139 142 -3 142 -3 0 1026 0 1025 -430 0 -430 0 0 -305
0 -305 95 0 95 0 0 -276 c0 -290 -9 -391 -42 -462 -25 -53 -77 -82 -145 -82
-98 0 -152 59 -173 190 -14 91 -14 1862 1 1929 12 57 41 104 82 135 23 17 43
21 102 21 85 0 105 -13 139 -85 18 -40 21 -68 24 -267 l4 -223 344 0 344 0 0
38 c-1 161 -28 426 -57 562 -63 293 -209 483 -437 566 -133 48 -306 67 -501
53z"/>
<path d="M40675 20539 c-120 -8 -175 -20 -273 -60 -282 -112 -434 -356 -472
-754 -13 -146 -13 -1700 0 -1870 28 -337 106 -552 254 -701 116 -116 249 -170
446 -181 137 -8 245 13 358 68 91 44 187 129 236 208 15 24 31 39 35 35 5 -5
32 -71 62 -146 l54 -138 143 0 142 0 0 1025 0 1025 -430 0 -430 0 0 -305 0
-305 95 0 95 0 0 -247 c0 -137 -5 -291 -10 -343 -18 -164 -69 -230 -179 -230
-99 0 -147 50 -170 175 -15 80 -15 1884 -1 1953 13 57 60 119 106 138 52 22
125 18 165 -9 61 -41 72 -90 77 -339 l4 -218 341 0 340 0 -6 183 c-9 292 -47
488 -127 652 -27 56 -70 124 -97 154 -159 181 -402 254 -758 230z"/>
<path d="M8340 18760 l0 -1760 350 0 350 0 0 800 0 800 335 0 335 0 0 335 0
335 -335 0 -335 0 0 280 0 280 350 0 350 0 0 345 0 345 -700 0 -700 0 0 -1760z"/>
<path d="M10227 20513 c-4 -3 -7 -795 -7 -1760 l0 -1753 340 0 340 0 -2 1758
-3 1757 -331 3 c-182 1 -333 -1 -337 -5z"/>
<path d="M11470 18760 l0 -1760 343 2 342 3 4 855 3 855 172 -855 172 -855
342 -3 342 -2 0 1760 0 1760 -335 0 -335 0 0 -832 c0 -457 -2 -829 -5 -826 -3
3 -75 367 -160 809 -85 442 -157 814 -160 827 l-5 22 -360 0 -360 0 0 -1760z"/>
<path d="M13760 18760 l0 -1760 340 0 340 0 -2 1758 -3 1757 -337 3 -338 2 0
-1760z"/>
<path d="M14897 20513 c-4 -3 -7 -156 -7 -340 l0 -333 210 0 210 0 0 -1420 0
-1420 350 0 350 0 0 1420 0 1420 210 0 210 0 0 340 0 340 -763 0 c-420 0 -767
-3 -770 -7z"/>
<path d="M16917 20513 c-4 -3 -7 -795 -7 -1760 l0 -1753 728 2 727 3 0 340 0
340 -367 3 -368 2 0 400 0 400 330 0 330 0 0 335 0 335 -330 0 -330 0 0 340 0
340 345 0 345 0 0 340 0 340 -698 0 c-384 0 -702 -3 -705 -7z"/>
<path d="M20130 18760 l0 -1760 725 0 725 0 0 345 0 345 -370 0 -370 0 0 400
0 400 335 0 335 0 -2 333 -3 332 -333 3 -332 2 2 338 3 337 348 3 347 2 -2
338 -3 337 -702 3 -703 2 0 -1760z"/>
<path d="M22100 18760 l0 -1760 345 0 345 0 1 863 1 862 173 -860 c96 -473
174 -861 175 -863 0 -1 154 -1 343 0 l342 3 0 1755 0 1755 -337 3 -338 2 -1
-832 c0 -458 -3 -827 -6 -820 -3 7 -76 381 -162 830 l-157 817 -362 3 -362 2
0 -1760z"/>
<path d="M26667 20513 c-4 -3 -7 -795 -7 -1760 l0 -1753 340 0 340 0 -2 1758
-3 1757 -331 3 c-182 1 -333 -1 -337 -5z"/>
<path d="M27910 18760 l0 -1760 343 2 342 3 4 855 3 855 172 -855 172 -855
342 -3 342 -2 0 1760 0 1760 -335 0 -335 0 0 -832 c0 -457 -2 -829 -5 -826 -3
3 -75 367 -160 809 -85 442 -157 814 -160 827 l-5 22 -360 0 -360 0 0 -1760z"/>
<path d="M30237 20513 c-4 -3 -7 -795 -7 -1760 l0 -1753 725 0 725 0 0 345 0
345 -365 0 -365 0 0 400 0 400 330 0 330 0 0 335 0 335 -330 0 -330 0 0 340 0
340 345 0 345 0 -2 338 -3 337 -696 3 c-382 1 -699 -1 -702 -5z"/>
<path d="M32205 20508 c-3 -7 -4 -798 -3 -1758 l3 -1745 725 0 725 0 0 340 0
340 -367 3 -368 2 0 400 0 400 330 0 330 0 0 335 0 335 -330 0 -330 0 0 340 0
340 345 0 345 0 0 340 0 340 -700 0 c-551 0 -702 -3 -705 -12z"/>
<path d="M34180 18761 l0 -1761 355 0 355 0 0 800 0 800 53 0 c112 0 177 -38
196 -115 7 -30 11 -276 11 -764 l0 -721 343 0 344 0 7 688 c7 675 4 767 -25
875 -36 135 -115 224 -228 258 l-41 12 60 29 c155 74 240 220 270 462 26 200
1 620 -46 784 -42 148 -138 276 -251 335 -133 68 -140 69 -805 74 l-598 5 0
-1761z m964 1078 c15 -12 32 -33 37 -47 19 -50 30 -241 19 -343 -11 -114 -31
-170 -72 -204 -27 -23 -37 -25 -134 -25 l-104 0 0 320 0 320 114 0 c100 0 116
-2 140 -21z"/>
<path d="M36380 18760 l0 -1760 340 0 340 0 -2 1758 -3 1757 -337 3 -338 2 0
-1760z"/>
<path d="M37630 18760 l0 -1760 340 0 340 0 1 873 c0 479 3 865 7 857 3 -8 83
-400 177 -870 l171 -855 342 -3 342 -2 0 1760 0 1760 -337 -2 -338 -3 -5 -815
-5 -815 -153 800 c-84 440 -156 808 -158 818 -5 16 -31 17 -365 17 l-359 0 0
-1760z"/>
</g>
</svg>
